<svg id="Heart" xmlns="http://www.w3.org/2000/svg" width="31.8" height="28.407" viewBox="0 0 31.8 28.407">
  <path id="Path_53" data-name="Path 53" d="M40.182,191.107A.411.411,0,0,1,39.9,191c-1.437-1.355-2.821-2.812-4.159-4.222-.85-.9-1.729-1.821-2.61-2.707-1.272-1.28-2.4-2.387-3.459-3.383-.34-.321-.7-.64-1.053-.947a20.055,20.055,0,0,1-2.162-2.1A9.239,9.239,0,0,1,24.32,171.7a8.808,8.808,0,0,1,8.586-9,8.494,8.494,0,0,1,7.314,4.283,8.486,8.486,0,0,1,7.315-4.283,8.808,8.808,0,0,1,8.586,9c0,3.248-1.942,5.526-4.106,7.765h0q-.264.274-.529.544l-.416.427c-2.667,2.75-5.412,5.5-8.16,8.171-.038.037-.17.183-.308.337-1.479,1.645-2.041,2.152-2.4,2.167Zm-7.276-27.729A8.129,8.129,0,0,0,25,171.7a8.558,8.558,0,0,0,1.978,5.5,19.551,19.551,0,0,0,2.091,2.031c.354.312.721.634,1.07.963,1.061,1,2.2,2.112,3.474,3.4.886.892,1.768,1.82,2.62,2.718,1.291,1.36,2.625,2.764,4,4.071a16.379,16.379,0,0,0,1.865-1.892c.193-.214.287-.319.34-.37,2.742-2.667,5.483-5.411,8.146-8.157l.417-.429.527-.542h0c2.064-2.135,3.915-4.3,3.915-7.294a8.129,8.129,0,0,0-7.908-8.318,7.852,7.852,0,0,0-7,4.447l-.317.638-.3-.62-.02-.04-.01-.02A7.854,7.854,0,0,0,32.906,163.379Z" transform="translate(-24.32 -162.7)" fill="#707070"/>
</svg>
