<svg xmlns="http://www.w3.org/2000/svg" width="35.055" height="33.173" viewBox="0 0 35.055 33.173">
  <g id="Search" transform="matrix(0.998, -0.07, 0.07, 0.998, 0, 2.3)">
    <path id="Path_51" data-name="Path 51" d="M547.669,585.846l-10.513-9.68a11.435,11.435,0,1,0-10.173,6.211,11.31,11.31,0,0,0,6.709-2.174l10.376,9.554a2.662,2.662,0,0,0,3.756-.154h0A2.661,2.661,0,0,0,547.669,585.846ZM533.4,579.117a10.286,10.286,0,0,1-6.421,2.22,10.4,10.4,0,1,1,6.421-2.22Zm13.655,9.781a1.622,1.622,0,0,1-2.286.094l-10.257-9.446,0,0c.1-.089.2-.179.3-.272l.147-.14c.049-.048.1-.094.145-.143s.1-.1.147-.152.089-.094.133-.141.091-.1.136-.15.089-.1.133-.153c.025-.029.049-.057.074-.087s.06-.07.088-.106.051-.063.076-.094.033-.041.049-.061c.033-.041.065-.082.1-.123s.082-.108.122-.162c.029-.039.059-.079.088-.119s.052-.071.076-.107l.051-.073c.046-.066.091-.133.135-.2.006-.009.011-.017.017-.026.032-.048.063-.1.094-.145l10.34,9.519a1.623,1.623,0,0,1,.094,2.287Z" transform="translate(-515.55 -559.51)" fill="#707070"/>
  </g>
</svg>
