<svg xmlns="http://www.w3.org/2000/svg" width="44.083" height="40.281" viewBox="0 0 44.083 40.281">
  <g id="Group_11" data-name="Group 11" transform="translate(-257.706 -245.917)">
    <path id="Path_49" data-name="Path 49" d="M301.789,258.611a1.684,1.684,0,0,1-.474.915Q291.007,272.513,280.7,285.5c-.746.939-1.234.93-1.995-.028q-10.278-12.942-20.562-25.88a1.443,1.443,0,0,1-.025-2.043c1.778-2.426,3.513-4.884,5.255-7.337a4,4,0,0,1,1.774-1.415c2-.839,3.986-1.709,5.97-2.581a3.691,3.691,0,0,1,1.528-.3q7.032.009,14.064,0a.319.319,0,0,1,.1,0c3.549,1.3,7.5,1.855,9.934,5.256q2.292,3.2,4.569,6.408A1.73,1.73,0,0,1,301.789,258.611Zm-21.938,6.92c2.97,0,5.94-.021,8.909.015.735.009.916-.142.692-.883q-1.38-4.562-2.666-9.153a1.057,1.057,0,0,0-1.217-.854c-3.878.018-7.756.025-11.634-.005a1.114,1.114,0,0,0-1.288,1.018q-1.064,4.484-2.239,8.942c-.2.764-.048.949.743.937C274.051,265.5,276.951,265.53,279.851,265.531Zm-9.488,1.89a1.58,1.58,0,0,0,.092.347q4.408,7.561,8.818,15.123c.481.828.678.329.948-.132q3.2-5.477,6.4-10.949c.837-1.433,1.668-2.872,2.548-4.388ZM266.75,250c1.56.856,2.882,1.553,4.173,2.3a4.71,4.71,0,0,0,2.494.64c3.218-.032,6.447-.17,9.651.034a12.268,12.268,0,0,0,8.107-2.128c.407-.283.944-.4,1.292-.944-1.145-.493-2.224-.9-3.25-1.416a8.2,8.2,0,0,0-3.941-.838c-3.392.058-6.8.2-10.175-.035C272.064,247.4,269.644,248.795,266.75,250Zm1.609,14.713c.4-.148.4-.5.47-.786.715-2.847,1.392-5.7,2.154-8.539a1.113,1.113,0,0,0-.671-1.5q-2.372-1.234-4.709-2.536a.724.724,0,0,0-1.128.255q-1.985,2.835-4.026,5.631c-.369.506-.305.831.18,1.222,2.425,1.949,4.827,3.928,7.238,5.894C268.029,264.484,268.2,264.6,268.359,264.712Zm30.9-6.953a2.276,2.276,0,0,0-.165-.325q-2.125-2.987-4.254-5.972a.591.591,0,0,0-.9-.169q-2.525,1.385-5.067,2.739a.808.808,0,0,0-.413,1.119q1.276,4.263,2.489,8.545c.2.7.405.857,1.022.342,2.251-1.88,4.534-3.722,6.8-5.579C298.989,258.286,299.246,258.14,299.257,257.759Zm-36.321,5.084,9.245,11.647C269.731,270.128,267.922,265.263,262.937,262.843Zm33.521.035-.156-.151c-.669.539-1.314,1.112-2.012,1.61a12.6,12.6,0,0,0-4.079,4.679c-.928,1.849-2.063,3.6-3.108,5.386l.144.09Z" fill="#6b6b6b"/>
  </g>
</svg>
