<svg xmlns="http://www.w3.org/2000/svg" width="40.508" height="38.743" viewBox="0 0 40.508 38.743">
  <g id="SYMB" transform="translate(-322.581 -257.003)">
    <g id="Group_2" data-name="Group 2" transform="translate(322.581 257.003)">
      <path id="Path_4" data-name="Path 4" d="M329.456,293.32c.167-.985.364-2.155.565-3.323q.632-3.681,1.269-7.361a1.35,1.35,0,0,0-.431-1.3c-2.509-2.424-5-4.87-7.5-7.3a2.258,2.258,0,0,1,1.254-3.939c.116-.017.231-.045.347-.062,3.334-.48,6.667-.966,10-1.436a1.4,1.4,0,0,0,1.171-.846q2.311-4.744,4.672-9.463a2.222,2.222,0,0,1,3.357-.832,2.535,2.535,0,0,1,.758.954c1.521,3.091,3.055,6.175,4.558,9.274a1.506,1.506,0,0,0,1.266.925q5.2.73,10.393,1.5a2.146,2.146,0,0,1,1.772,1.406,2.019,2.019,0,0,1-.386,2.256c-1,1.052-2.054,2.05-3.093,3.064q-2.329,2.273-4.672,4.532a1.29,1.29,0,0,0-.394,1.267q.907,5.172,1.779,10.351a2.263,2.263,0,0,1-3.375,2.427c-3.02-1.6-6.05-3.172-9.06-4.785a1.661,1.661,0,0,0-1.761,0c-3.046,1.639-6.113,3.24-9.183,4.834A2.266,2.266,0,0,1,329.456,293.32Zm1.284.121a1,1,0,0,0,.567.905,1.038,1.038,0,0,0,1.04-.112c3.047-1.607,6.1-3.2,9.14-4.822a2.555,2.555,0,0,1,2.589-.041c3.08,1.637,6.176,3.247,9.261,4.875a1.023,1.023,0,0,0,1.155.026,1.037,1.037,0,0,0,.37-1.14q-.886-5.176-1.778-10.351a2.363,2.363,0,0,1,.692-2.247q1.325-1.287,2.646-2.578,2.488-2.427,4.976-4.851a1,1,0,0,0,.322-1.072.955.955,0,0,0-.89-.668c-.77-.1-1.536-.222-2.3-.334-2.725-.4-5.448-.8-8.174-1.19a2.459,2.459,0,0,1-1.973-1.485c-1.512-3.1-3.041-6.182-4.563-9.272-.013-.026-.026-.053-.037-.08a1.031,1.031,0,0,0-.971-.7,1.044,1.044,0,0,0-.926.7c-1.509,3.064-3.049,6.113-4.522,9.194a2.828,2.828,0,0,1-2.4,1.71c-3.4.459-6.783.981-10.175,1.47a.961.961,0,0,0-.853.655.949.949,0,0,0,.284,1.039c.2.209.417.413.626.618q3.495,3.408,6.994,6.813a2.4,2.4,0,0,1,.737,2.274q-.689,3.962-1.365,7.925C331.051,291.621,330.893,292.545,330.74,293.441Z" transform="translate(-322.581 -257.003)" fill="#6b6b6b"/>
    </g>
  </g>
</svg>
