<svg xmlns="http://www.w3.org/2000/svg" width="50.836" height="50.852" viewBox="0 0 50.836 50.852">
  <path id="Path_29" data-name="Path 29" d="M731.145-691.89a25.445,25.445,0,0,1,25.411,25.432,25.388,25.388,0,0,1-25.445,25.42,25.385,25.385,0,0,1-25.391-25.435A25.443,25.443,0,0,1,731.145-691.89ZM744.386-654.1l.278.268c1.336,1.317,2.676,2.631,4,3.955.207.206.322.128.477-.044a25.888,25.888,0,0,0,2.4-3.083,25.094,25.094,0,0,0,2.8-5.745c.089-.263.046-.385-.23-.448-.327-.075-.645-.182-.967-.277q-5.057-1.489-10.112-2.982c-.248-.073-.371-.051-.468.219a11.555,11.555,0,0,1-2.18,3.7c-.19.218-.186.342.022.544C741.748-656.695,743.065-655.393,744.386-654.1Zm-2.012-12.353c0-.2.01-.4,0-.6-.016-.272-.036-.546-.077-.816a11.186,11.186,0,0,0-6.161-8.663,1.032,1.032,0,0,0-.816-.078,9.963,9.963,0,0,0-7.16,11.041,9.984,9.984,0,0,0,8.788,8.4,1.155,1.155,0,0,0,.862-.248A11.216,11.216,0,0,0,742.373-666.448Zm-8.265-10.832a11.166,11.166,0,0,0-12.665,5.145,11.252,11.252,0,0,0,2.07,13.947,11.137,11.137,0,0,0,12.328,1.891c-5.047-1.372-8.24-4.566-8.677-9.855C726.73-671.41,729.34-675.073,734.108-677.28ZM731-690.9a16.549,16.549,0,0,0-1.933.081,24.8,24.8,0,0,0-4.033.682c-.272.069-.317.2-.24.459q1.629,5.5,3.239,11c.082.281.205.367.509.3a12.09,12.09,0,0,1,5.209,0c.283.062.406-.01.485-.281q1.606-5.487,3.23-10.968c.1-.333.025-.459-.308-.541A24.7,24.7,0,0,0,731-690.9Zm.352,48.9a23.9,23.9,0,0,0,5.694-.718c.54-.133.542-.141.386-.668q-1.593-5.413-3.184-10.826c-.088-.3-.214-.384-.531-.315a12.342,12.342,0,0,1-5.065.028c-.5-.1-.5-.1-.656.412q-1.589,5.394-3.184,10.787c-.106.357-.017.478.327.562A25.248,25.248,0,0,0,731.351-642.005Zm24.238-24.686c.013-.389-.028-1.02-.075-1.652a25.2,25.2,0,0,0-.682-4.183c-.077-.312-.219-.359-.506-.264-.6.2-1.213.363-1.82.542q-4.555,1.34-9.112,2.676c-.321.093-.4.226-.328.557a12.109,12.109,0,0,1-.011,5.173c-.061.283.015.406.285.485q5.487,1.605,10.967,3.23c.336.1.458.019.539-.311A25.259,25.259,0,0,0,755.59-666.691Zm-48.9.445a24.234,24.234,0,0,0,.7,5.662c.145.577.145.578.718.409q5.4-1.588,10.791-3.172c.3-.089.38-.216.311-.533a12.009,12.009,0,0,1-.01-5.1c.078-.362,0-.5-.357-.6q-5.453-1.586-10.9-3.208c-.32-.095-.44-.019-.518.3A25.031,25.031,0,0,0,706.691-666.246Zm28.414-11.96c-.023.2-.025.2.248.3a11.872,11.872,0,0,1,3.871,2.335c.229.208.345.164.539-.028q4.068-4.028,8.153-8.037c.248-.242.246-.375-.006-.61a24.629,24.629,0,0,0-8.94-5.38c-.459-.157-.462-.156-.6.313q-1.507,5.112-3.013,10.225C735.27-678.791,735.187-678.491,735.105-678.206Zm-13.046,19.965c-.012-.125-.111-.191-.181-.274a12.01,12.01,0,0,1-2.162-3.676c-.107-.292-.225-.336-.514-.251q-5.465,1.623-10.941,3.215c-.369.107-.427.234-.3.589a24.843,24.843,0,0,0,5,8.53c.414.464.407.47.859.02l.265-.263q3.857-3.79,7.712-7.58A.9.9,0,0,0,722.059-658.241ZM719.4-670.417c.255.069.252-.15.3-.284a11.773,11.773,0,0,1,2.124-3.612c.249-.285.233-.426-.029-.682q-4.044-3.945-8.064-7.915c-.353-.347-.357-.352-.68.007a24.674,24.674,0,0,0-5.119,8.714c-.092.272-.054.39.237.475q4.437,1.291,8.868,2.6Zm7.78-7.768c-.013-.046-.04-.142-.068-.236q-1.619-5.507-3.231-11.015c-.09-.309-.223-.31-.481-.222a24.686,24.686,0,0,0-9.015,5.4c-.265.247-.271.383-.009.638q3.428,3.348,6.832,6.72.69.68,1.378,1.365c.113.112.2.206.368.054a12.083,12.083,0,0,1,4.058-2.452C727.1-677.97,727.207-678,727.176-678.185Zm11.474,35c.066-.02.139-.04.209-.064a24.608,24.608,0,0,0,9.074-5.439c.221-.208.243-.332.014-.556q-4.113-4.034-8.2-8.09c-.2-.195-.309-.192-.512-.008a11.586,11.586,0,0,1-3.8,2.3c-.305.112-.364.224-.271.533.783,2.618,1.548,5.242,2.32,7.864.312,1.061.621,2.122.938,3.181C738.448-643.346,738.435-643.167,738.65-643.185Zm15.757-30.786c-.016-.056-.026-.1-.043-.152a24.709,24.709,0,0,0-5.241-8.9c-.184-.2-.3-.173-.479,0q-4.115,4.059-8.243,8.1c-.2.195-.192.311-.013.515a11.556,11.556,0,0,1,2.181,3.706c.107.3.24.3.5.22,2.167-.644,4.338-1.276,6.507-1.913q2.27-.667,4.539-1.342C754.235-673.763,754.436-673.746,754.407-673.971Zm-27.222,19.213c0-.152,0-.154-.28-.257a11.893,11.893,0,0,1-3.869-2.339c-.217-.2-.328-.153-.511.028q-4.081,4.039-8.18,8.062c-.238.233-.232.36.008.585a24.808,24.808,0,0,0,9.04,5.428c.31.106.405.029.49-.26q1.573-5.384,3.164-10.762C727.1-654.439,727.142-654.607,727.185-654.758Z" transform="translate(-705.72 691.89)" fill="#6b6b6b"/>
</svg>
