<svg xmlns="http://www.w3.org/2000/svg" width="51.267" height="50.272" viewBox="0 0 51.267 50.272">
  <g id="Group_10" data-name="Group 10" transform="translate(1016.512 172.639)">
    <path id="Path_45" data-name="Path 45" d="M-996.9-151.49v-.3q0-7.7.006-15.4c0-.927-.028-1.855.026-2.783.03-.521-.028-1.047-.028-1.571,0-.752.347-1.091,1.1-1.091.911,0,1.822,0,2.733,0,2.527,0,5.055.031,7.582-.006a8.9,8.9,0,0,1,4.007.857,7.93,7.93,0,0,1,4.745,5.906,7.464,7.464,0,0,1-1.525,6.15.318.318,0,0,0-.011.457,8.586,8.586,0,0,1,1.727,5.744,8.244,8.244,0,0,1-.771,3.171c-.047.1-.088.2-.138.3-.09.178-.021.2.147.174a10.545,10.545,0,0,1,1.428-.125,10.245,10.245,0,0,1,6.775,2.39,15.309,15.309,0,0,1,3.613,4.381.921.921,0,0,1-.344,1.33q-1.871,1.062-3.745,2.122a.936.936,0,0,1-1.444-.377,9,9,0,0,0-2.214-2.651,3.919,3.919,0,0,0-4.688-.2,7.791,7.791,0,0,0-3.5,5.179,8.547,8.547,0,0,0,.556,5.481,5.876,5.876,0,0,0,5.137,3.635,4.2,4.2,0,0,0,3.511-1.479,6.666,6.666,0,0,0,1.108-1.7.912.912,0,0,1,1.287-.475q1.975.889,3.944,1.791a.937.937,0,0,1,.507,1.367,13.088,13.088,0,0,1-2.24,3.359,10.793,10.793,0,0,1-4.166,2.818,10.745,10.745,0,0,1-5.158.578,12.239,12.239,0,0,1-3.391-.941,11.2,11.2,0,0,1-1.982-1.132,12.951,12.951,0,0,1-3.44-3.569,13.927,13.927,0,0,1-2.051-5.8,14.907,14.907,0,0,1,1.38-8.721,13.8,13.8,0,0,1,1.545-2.478c.047-.06.145-.119.088-.21-.042-.066-.136-.038-.208-.038q-4.678,0-9.356,0c-.241,0-.253.079-.177.279q1.532,3.993,3.054,7.99.6,1.558,1.189,3.117a.926.926,0,0,1-.819,1.348,2.871,2.871,0,0,1-.331.014q-2.511,0-5.023,0c-.174,0-.349-.018-.523-.027a.912.912,0,0,1-.865-.652c-.476-1.255-.965-2.506-1.433-3.765a.455.455,0,0,0-.506-.344q-3.643.016-7.285,0a.3.3,0,0,0-.332.219q-.461,1.225-.93,2.446c-.2.515-.39,1.032-.6,1.544a.836.836,0,0,1-.764.544c-.864.066-1.729.024-2.593.03-1.049.008-2.1.01-3.146,0-.9-.01-1.281-.575-.977-1.419.006-.017.012-.035.019-.052q.927-2.437,1.853-4.875l4.82-12.662q1-2.618,1.991-5.236c.3-.79.621-1.573.915-2.365a.962.962,0,0,1,.973-.7c1.683-.008,3.365,0,5.046.1a.939.939,0,0,1,.932.691c.9,2.443,1.838,4.87,2.764,7.3.045.119.095.235.142.353Zm1.833-7.523h0v.993q0,5.2,0,10.4c0,.433,0,.434.448.433,3.128,0,6.255-.018,9.383-.007a6.568,6.568,0,0,0,4.918-2,6.726,6.726,0,0,0,1.521-7.28,5.945,5.945,0,0,0-1.469-2.309.931.931,0,0,1-.005-1.415c.148-.151.29-.308.426-.47a5.716,5.716,0,0,0,1.262-5.158,6.024,6.024,0,0,0-2.769-3.8,6.623,6.623,0,0,0-3.6-1.166c-3.238-.015-6.477-.007-9.715-.008-.4,0-.4,0-.4.42Q-995.069-164.7-995.067-159.013Zm-8.295,19.789H-999a1.045,1.045,0,0,1,1.163.806c.47,1.248.948,2.493,1.415,3.742a.316.316,0,0,0,.344.24c1.1-.006,2.207,0,3.311,0,.315,0,.328-.019.218-.31q-.757-2-1.519-4-1.6-4.225-3.205-8.45c-.477-1.254-.968-2.5-1.448-3.757q-1.316-3.441-2.623-6.885a.335.335,0,0,0-.362-.257q-1.656.012-3.312,0a.34.34,0,0,0-.371.25c-.3.8-.611,1.6-.915,2.4q-1.719,4.512-3.437,9.025-2.228,5.854-4.457,11.706c-.089.234-.028.283.2.282,1.085-.008,2.171-.01,3.256,0a.422.422,0,0,0,.464-.324c.463-1.24.94-2.475,1.414-3.711a1,1,0,0,1,1.11-.754Zm28.377,15.026a8.143,8.143,0,0,0,3.926-1.209,10,10,0,0,0,3.5-3.565c.128-.213.116-.322-.136-.428-.627-.263-1.243-.554-1.859-.844-.188-.089-.312-.089-.432.111a6.786,6.786,0,0,1-.7.957,6.043,6.043,0,0,1-5.424,2.263,7.6,7.6,0,0,1-6.387-4.6,10.274,10.274,0,0,1-.541-7.356,9.522,9.522,0,0,1,4.412-5.836,5.742,5.742,0,0,1,6.649.565A10.421,10.421,0,0,1-970.031-142c.133.194.247.254.47.12.6-.36,1.209-.7,1.821-1.041.17-.094.2-.176.087-.342a11.384,11.384,0,0,0-4.147-3.918,8.244,8.244,0,0,0-6.129-.686,9.473,9.473,0,0,0-4.034,2.306,12.769,12.769,0,0,0-4.159,9.227,13.944,13.944,0,0,0,.3,3.151A10.986,10.986,0,0,0-981-125.856,10.293,10.293,0,0,0-974.985-124.2Z" transform="translate(0 0)" fill="#6b6b6b"/>
    <path id="Path_46" data-name="Path 46" d="M-575.323,97.769c-1.076,0-2.153,0-3.229,0a.909.909,0,0,1-1.011-1.007q-.007-3.188-.007-6.376a.916.916,0,0,1,.917-.912c.69-.013,1.38-.007,2.07-.007l4.223,0a4.036,4.036,0,0,1,4.135,4.145,3.919,3.919,0,0,1-1.96,3.571,3.97,3.97,0,0,1-2.073.584Zm.541-1.835c.828,0,1.656,0,2.483,0a2.241,2.241,0,0,0,2.271-2.335,2.252,2.252,0,0,0-2.267-2.293c-1.7-.009-3.4,0-5.1-.007-.248,0-.338.072-.336.328q.016,1.987,0,3.973c0,.249.075.341.331.337C-576.53,95.926-575.656,95.933-574.783,95.934Z" transform="translate(-412.82 -247.634)" fill="#6b6b6b"/>
    <path id="Path_47" data-name="Path 47" d="M-575.282-91.81c1.049,0,2.1-.067,3.144.016a4.163,4.163,0,0,1,3.542,2.109,3.315,3.315,0,0,1-1.119,4.336,4.888,4.888,0,0,1-2.8.881q-2.856,0-5.712,0a2.673,2.673,0,0,1-.494-.037.886.886,0,0,1-.762-.886q-.012-2.759,0-5.519a.925.925,0,0,1,1-.892c1.067,0,2.134,0,3.2,0A0,0,0,0,1-575.282-91.81Zm.5,1.833c-.846,0-1.691.008-2.537,0-.25,0-.338.073-.335.33.012.993,0,1.986.006,2.979,0,.356.012.366.378.367,1.6,0,3.2.006,4.8,0a2.946,2.946,0,0,0,1.816-.632,1.472,1.472,0,0,0,.129-2.306,2.638,2.638,0,0,0-1.773-.728C-573.129-90-573.957-89.976-574.785-89.976Z" transform="translate(-412.898 -76.343)" fill="#6b6b6b"/>
    <path id="Path_48" data-name="Path 48" d="M-851.948,188.268c-1.112,0-2.225,0-3.338,0a.9.9,0,0,1-.9-1.272q1.664-4.383,3.339-8.762a.915.915,0,0,1,1.006-.682.953.953,0,0,1,.774.665q.761,2.011,1.529,4.021.891,2.343,1.779,4.687a.93.93,0,0,1-.195,1.114.919.919,0,0,1-.658.232C-849.723,188.266-850.836,188.268-851.948,188.268Zm.01-7.2a1.676,1.676,0,0,0-.093.161q-.945,2.473-1.89,4.944c-.093.241.024.264.215.263q1.738,0,3.476,0c.329,0,.333,0,.215-.311q-.663-1.753-1.332-3.5Z" transform="translate(-151.405 -330.847)" fill="#6b6b6b"/>
  </g>
</svg>
